<svg version="1.2" xmlns="http://www.w3.org/2000/svg" viewBox="0 0 1552 1550" width="1552" height="1550">
	<title>sdsdfsd-svg</title>
	<style>
		.s0 { fill: #280071 } 
	</style>
	<path id="Layer" class="s0" d="m894.6 446.6v-446.6h-447.3v223.3h-223.7v223.3h-223.6v446.6h447.3v-446.6zm-111.8 893.2c-61.9 0-111.9-49.9-111.9-111.6 0-61.8 50-111.7 111.9-111.7 61.8 0 111.8 49.9 111.8 111.7 0 61.7-50 111.6-111.8 111.6zm223.6 0c-61.8 0-111.8-49.9-111.8-111.6 0-61.8 50-111.7 111.8-111.7 61.9 0 111.8 49.9 111.8 111.7 0 61.7-49.9 111.6-111.8 111.6zm223.7-13.9c-54.1 0-97.9-43.7-97.9-97.7 0-54.1 43.8-97.7 97.9-97.7 54.1 0 97.8 43.6 97.8 97.7 0 54-43.7 97.7-97.8 97.7zm-447.3 223.3c-54.1 0-97.9-43.7-97.9-97.7 0-54.1 43.8-97.7 97.9-97.7 54.1 0 97.8 43.6 97.8 97.7 0 54-43.7 97.7-97.8 97.7zm223.6-14c-46.4 0-83.8-37.4-83.8-83.7 0-46.3 37.4-83.8 83.8-83.8 46.4 0 83.9 37.5 83.9 83.8 0 46.3-37.5 83.7-83.9 83.7zm223.7-642c-61.9 0-111.9-49.9-111.9-111.6 0-61.8 50-111.7 111.9-111.7 61.8 0 111.8 49.9 111.8 111.7 0 61.7-50 111.6-111.8 111.6zm223.6-13.9c-54.1 0-97.8-43.7-97.8-97.7 0-54.1 43.7-97.7 97.8-97.7 54.1 0 97.9 43.6 97.9 97.7 0 54-43.8 97.7-97.9 97.7zm-223.6 237.2c-61.9 0-111.9-49.9-111.9-111.6 0-61.8 50-111.7 111.9-111.7 61.8 0 111.8 49.9 111.8 111.7 0 61.7-50 111.6-111.8 111.6zm223.6-27.9c-46.4 0-83.8-37.4-83.8-83.7 0-46.3 37.4-83.8 83.8-83.8 46.4 0 83.9 37.5 83.9 83.8 0 46.3-37.5 83.7-83.9 83.7z"/>
</svg>