<svg xmlns="http://www.w3.org/2000/svg" viewBox="0 0 968.86 133.01"><g id="Layer_2" data-name="Layer 2"><g id="Outlinet"><path d="M580.27,106.29A66.52,66.52,0,0,1,604.13,6.86h0s8.16,3,17.17,15.58a70.5,70.5,0,0,1,11,25.15S617.39,52,601.4,68.38a81.74,81.74,0,0,0-21.13,37.91Z"/><path d="M625.74.47a66.5,66.5,0,0,1,74.17,70.38h0s-6.67,5.56-22.08,7.08a70.49,70.49,0,0,1-27.25-3.09s3.57-15.1-2.58-37.12A81.8,81.8,0,0,0,625.74.47Z"/><path d="M694.65,92.76a66.52,66.52,0,0,1-98,29h0s-1.48-8.56,4.92-22.66a70.4,70.4,0,0,1,16.29-22.06s11.3,10.65,33.44,16.33a81.83,81.83,0,0,0,43.4-.65Z"/><path d="M625.74.47a66.5,66.5,0,0,1,74.17,70.38h0s-6.67,5.56-22.08,7.08a70.49,70.49,0,0,1-27.25-3.09s3.57-15.1-2.58-37.12A81.8,81.8,0,0,0,625.74.47Z"/><path d="M694.65,92.76a66.52,66.52,0,0,1-98,29h0s-1.48-8.56,4.92-22.66a70.4,70.4,0,0,1,16.29-22.06s11.3,10.65,33.44,16.33a81.83,81.83,0,0,0,43.4-.65Z"/><path d="M0,36.78V14.44H94.88V36.78H60.17v85.64H34.55V36.78Z"/><path d="M133.89,78.93c0,15.79,3.73,24.58,21.45,24.58,17.87,0,21-10.13,21-26.07v-63h25.47V75.36c0,33.21-12.81,49-46.47,49-32.32,0-46.92-12.51-46.92-48.11V14.44h25.47Z"/><path d="M244,43.48c0,5.37,5.07,9.24,12.51,10.88l14.75,3c17.42,3.57,39.47,8.93,39.47,31.57s-22.79,35.45-45.28,35.45c-27.7,0-45.87-13.85-49.75-37.09H241c2.83,11.32,11.77,16.54,25,16.54,8.63,0,18.46-2.83,18.46-11.77,0-7-8.34-10.43-20.1-13L251.25,76.4C233.68,72.68,217.74,64.34,217.74,45c0-22,23.68-32.32,44.83-32.32s41.26,9.24,45,33.07H282.38c-2.53-8-10.43-12.66-21.3-12.66C251.25,33.06,244,36.78,244,43.48Z"/><path d="M347.46,43.48c0,5.37,5.06,9.24,12.51,10.88l14.75,3c17.42,3.57,39.47,8.93,39.47,31.57s-22.79,35.45-45.28,35.45c-27.71,0-45.88-13.85-49.75-37.09h25.32c2.83,11.32,11.77,16.54,25,16.54C378.14,103.81,388,101,388,92c0-7-8.34-10.43-20.1-13L354.76,76.4C337.18,72.68,321.25,64.34,321.25,45c0-22,23.68-32.32,44.83-32.32s41.25,9.24,45,33.07H385.89c-2.54-8-10.43-12.66-21.3-12.66C354.76,33.06,347.46,36.78,347.46,43.48Z"/><path d="M485.52,14.44l40.81,108h-27.7l-6.55-19.21H450.37L444,122.42H416.86l40.66-108Zm-.3,68.07L471.37,41.4l-14,41.11Z"/><path d="M755.19,122.42V14.4h15.2v108Z"/><path d="M860.39,14.4h18.92L838.93,58.5l45,63.92H865.75l-37.1-52.74-17,18.77v34H796.47V14.4h15.19V68.78Z"/><path d="M883.33,27.51V14.4h85.53V27.51H933.69v94.91h-15.2V27.51Z"/></g></g></svg>